<?xml version="1.0" encoding="utf-8"?>
<!-- Generator: Adobe Illustrator 25.2.1, SVG Export Plug-In . SVG Version: 6.00 Build 0)  -->
<svg version="1.1" xmlns="http://www.w3.org/2000/svg" xmlns:xlink="http://www.w3.org/1999/xlink" x="0px" y="0px"
	 viewBox="0 0 16 16" style="enable-background:new 0 0 16 16;" xml:space="preserve">
<style type="text/css">
	.st0{fill:#E30613;}
</style>
<g id="Réteg_1">
	<path d="M6.7,3.5C6.9,3.6,7,3.8,7,4v8c0,0.3-0.2,0.5-0.5,0.5c-0.1,0-0.2,0-0.3-0.1l-2.4-1.9H1.5C1.2,10.5,1,10.3,1,10V6
		c0-0.3,0.2-0.5,0.5-0.5h2.3l2.4-1.9C6.3,3.5,6.5,3.5,6.7,3.5z M6,5L4.3,6.4C4.2,6.5,4.1,6.5,4,6.5H2v3h2c0.1,0,0.2,0,0.3,0.1L6,11
		V5z"/>
</g>
<g id="Réteg_2">
	<path class="st0" d="M13.1,5.6c0.2,0.2,0.2,0.5,0,0.7c0,0,0,0,0,0L11.4,8l1.6,1.6c0.2,0.2,0.2,0.5,0,0.7s-0.5,0.2-0.7,0l-1.6-1.6
		l-1.6,1.6c-0.2,0.2-0.5,0.2-0.7,0s-0.2-0.5,0-0.7L10,8L8.3,6.4c-0.2-0.2-0.2-0.5,0-0.7s0.5-0.2,0.7,0l0,0l1.6,1.6l1.6-1.6
		C12.5,5.5,12.9,5.5,13.1,5.6C13.1,5.6,13.1,5.6,13.1,5.6z"/>
</g>
</svg>
